<?xml version="1.0" encoding="utf-8"?>
<!-- Generator: Adobe Illustrator 26.4.1, SVG Export Plug-In . SVG Version: 6.00 Build 0)  -->
<svg version="1.1" width="24px" id="레이어_1" xmlns="http://www.w3.org/2000/svg" xmlns:xlink="http://www.w3.org/1999/xlink" x="0px"
	 y="0px" viewBox="0 0 24 24" style="enable-background:new 0 0 24 24;" xml:space="preserve">
<style type="text/css">
	.st0{fill:#FFFFFF;} 
</style>
<path class="st0" d="M21,4c0-0.5-0.4-1-1-1H4C3.4,3,3,3.5,3,4v16c0,0.6,0.5,1,1,1h16c0.5,0,1-0.4,1-1V4z M4.5,4.5h15v15h-15V4.5z
	 M17,15.2c0-0.4-0.3-0.8-0.8-0.8H7.8c-0.4,0-0.8,0.3-0.8,0.8S7.3,16,7.8,16h8.5C16.7,16,17,15.7,17,15.2z M17,12
	c0-0.4-0.3-0.8-0.8-0.8H7.8C7.3,11.3,7,11.6,7,12s0.3,0.8,0.8,0.8h8.5C16.7,12.8,17,12.4,17,12z M17,8.8C17,8.3,16.7,8,16.2,8H7.8
	C7.3,8,7,8.3,7,8.8s0.3,0.8,0.8,0.8h8.5C16.7,9.5,17,9.2,17,8.8z"/>
</svg>
