<?xml version="1.0" encoding="utf-8"?>
<!-- Generator: Adobe Illustrator 26.4.1, SVG Export Plug-In . SVG Version: 6.00 Build 0)  -->
<svg  version="1.1" id="레이어_1" xmlns="http://www.w3.org/2000/svg" xmlns:xlink="http://www.w3.org/1999/xlink" x="0px"
	 y="0px" viewBox="0 0 24 24" fill="white" style="enable-background:new 0 0 24 24;" xml:space="preserve">
<style type="text/css">
	.st0{fill-rule:evenodd;clip-rule:evenodd;fill:#FFFFFF;}
</style>
<path class="st0" d="M14.9,17.7c-0.3,0.5-1,0.9-1.7,0.9c-0.4,0-0.8-0.1-1.1-0.4c-0.3,0.3-0.7,0.4-1.1,0.4c-0.7,0-1.4-0.4-1.7-0.9
	c-0.3-0.6,0.5-1.1,0.9-0.4c0.1,0.2,0.4,0.4,0.8,0.4c0.7,0,0.6-0.7,0.6-1.3c-0.4-0.2-0.7-0.6-0.7-1c0-0.5,0.6-0.8,1.3-0.8
	s1.3,0.2,1.3,0.8c0,0.4-0.3,0.8-0.7,1c0,0.6-0.1,1.3,0.6,1.3c0.3,0,0.7-0.2,0.9-0.4C14.5,16.6,15.2,17.1,14.9,17.7z M15,11.5
	c-0.5,0-0.8,0.4-0.8,0.8c0,0.5,0.4,0.8,0.8,0.8c0.5,0,0.8-0.4,0.8-0.8C15.8,11.9,15.5,11.5,15,11.5z M15,14.2c-1,0-1.8-0.8-1.8-1.8
	c0-1,0.8-1.8,1.8-1.8s1.8,0.8,1.8,1.8C16.8,13.3,16,14.2,15,14.2z M9,11.5c-0.5,0-0.8,0.4-0.8,0.8c0,0.5,0.4,0.8,0.8,0.8
	c0.5,0,0.8-0.4,0.8-0.8C9.8,11.9,9.5,11.5,9,11.5z M9,14.2c-1,0-1.8-0.8-1.8-1.8c0-1,0.8-1.8,1.8-1.8s1.8,0.8,1.8,1.8
	C10.8,13.3,10,14.2,9,14.2z M21.1,18.2c-0.8-7.6-2.5-11.3-4.6-13.9c-1.2,1.1-2,1.8-3.3,3.7c-0.7-0.1-1.8-0.1-2.5,0
	C9.2,6.1,8.2,5.3,6.9,4.3c-2,2.5-3.5,6.1-4.1,13.7C1.7,16.3,1,14.2,1,12C1,5.9,5.9,1,12,1c6.1,0,11,4.9,11,11
	C23,14.3,22.3,16.4,21.1,18.2z M12,23c-3.3,0-6.3-1.5-8.3-3.8C4,14.7,4.8,8.9,7.1,5.7c1.7,1.4,2.7,2.7,3.3,3.4
	c0.7-0.2,1.8-0.4,3.3,0c1-1.5,1.5-2.2,2.7-3.3c2,2.7,3.3,7.3,3.8,13.6C18.2,21.6,15.3,23,12,23z M12,0C5.4,0,0,5.4,0,12
	c0,6.6,5.4,12,12,12c6.6,0,12-5.3,12-12C24,5.4,18.6,0,12,0z"/>
</svg>
