<?xml version="1.0" encoding="utf-8"?>
<!-- Generator: Adobe Illustrator 26.4.1, SVG Export Plug-In . SVG Version: 6.00 Build 0)  -->
<svg version="1.1" id="레이어_1" xmlns="http://www.w3.org/2000/svg" xmlns:xlink="http://www.w3.org/1999/xlink" x="0px"
	 y="0px" viewBox="0 0 24 24" style="enable-background:new 0 0 24 24;" xml:space="preserve">
<style type="text/css">
	.st0{fill-rule:evenodd;clip-rule:evenodd;fill:#FFFFFF;}
</style>
<path class="st0" d="M12,2c5.5,0,10,4.5,10,10c0,5.5-4.5,10-10,10C6.5,22,2,17.5,2,12C2,6.5,6.5,2,12,2z M12,3.5
	c-4.7,0-8.5,3.8-8.5,8.5s3.8,8.5,8.5,8.5s8.5-3.8,8.5-8.5S16.7,3.5,12,3.5z M14.5,12c0-0.7,0.6-1.2,1.2-1.2c0.7,0,1.2,0.6,1.2,1.2
	s-0.6,1.2-1.2,1.2S14.5,12.7,14.5,12z M10.8,12c0-0.7,0.6-1.2,1.2-1.2s1.2,0.6,1.2,1.2s-0.6,1.2-1.2,1.2S10.8,12.7,10.8,12z M7,12
	c0-0.7,0.6-1.2,1.2-1.2s1.2,0.6,1.2,1.2s-0.6,1.2-1.2,1.2S7,12.7,7,12z"/>
</svg>

